# xmcd CD database file generated by Grip 3.2.0
# 
# Track frame offsets:
#       150
#       19355
#       62993
#       88194
#       115533
#       150251
#       187237
#       224439
#       259460
#       278779
# 
# Disc length: 4084 seconds
# 
# Revision: 1
# Processed by: cddbd v1.5.2PL0 Copyright (c) Steve Scherf et al.
# Submitted via: Grip 3.2.0
# 
DISCID=940ff20a
DTITLE=Sándor Márai - Die jungen Rebellen CD2
DYEAR=2001
DGENRE=Other
TTITLE0=die jungen REBELLEN CD 2
TTITLE1=die jungen REBELLEN CD 2
TTITLE2=die jungen REBELLEN CD 2
TTITLE3=die jungen REBELLEN CD 2
TTITLE4=die jungen REBELLEN CD 2
TTITLE5=die jungen REBELLEN CD 2
TTITLE6=die jungen REBELLEN CD 2
TTITLE7=die jungen REBELLEN CD 2
TTITLE8=die jungen REBELLEN CD 2
TTITLE9=die jungen REBELLEN CD 2
EXTD=YEAR: 2001
EXTT0=
EXTT1=
EXTT2=
EXTT3=
EXTT4=
EXTT5=
EXTT6=
EXTT7=
EXTT8=
EXTT9=
PLAYORDER=
